<svg id="visual" viewBox="0 0 1920 1080" width="1920" height="1080" xmlns="http://www.w3.org/2000/svg" xmlns:xlink="http://www.w3.org/1999/xlink" version="1.1"><rect x="0" y="0" width="1920" height="1080" fill="#C3232B"></rect><defs><linearGradient id="grad1_0" x1="43.8%" y1="0%" x2="100%" y2="100%"><stop offset="14.444444444444446%" stopColor="#c3232b" stop-opacity="1"></stop><stop offset="85.55555555555554%" stopColor="#c3232b" stop-opacity="1"></stop></linearGradient></defs><defs><linearGradient id="grad2_0" x1="0%" y1="0%" x2="56.3%" y2="100%"><stop offset="14.444444444444446%" stopColor="#c3232b" stop-opacity="1"></stop><stop offset="85.55555555555554%" stopColor="#c3232b" stop-opacity="1"></stop></linearGradient></defs><g transform="translate(1920, 0)"><path d="M0 594C-71.2 578.2 -142.3 562.4 -223.5 539.5C-304.6 516.7 -395.8 486.7 -420 420C-444.3 353.3 -401.6 249.9 -419.4 173.7C-437.3 97.6 -515.6 48.8 -594 0L0 0Z" fill="#79141C"></path></g><g transform="translate(0, 1080)"><path d="M0 -594C88 -596.4 176 -598.9 227.3 -548.8C278.6 -498.7 293.2 -396 334.5 -334.5C375.8 -272.9 443.8 -252.5 491.5 -203.6C539.2 -154.7 566.6 -77.3 594 0L0 0Z" fill="#79141C"></path></g></svg>